<mxfile host="app.diagrams.net" modified="2022-04-17T07:28:36.390Z" agent="5.0 (Macintosh; Intel Mac OS X 10_15_7) AppleWebKit/537.36 (KHTML, like Gecko) Chrome/99.0.4844.74 Safari/537.36 Edg/99.0.1150.55" etag="72pt9ye06Bc-lglRrFl_" version="17.4.2" type="github">
  <diagram id="062oHDO_rvCx1TUJsmdT" name="第 1 页">
    <mxGraphModel dx="1426" dy="794" grid="1" gridSize="10" guides="1" tooltips="1" connect="1" arrows="1" fold="1" page="1" pageScale="1" pageWidth="827" pageHeight="1169" math="0" shadow="0">
      <root>
        <mxCell id="0" />
        <mxCell id="1" parent="0" />
        <mxCell id="ZNKDLAeUSxo-m8NFxRNW-3" value="" style="edgeStyle=orthogonalEdgeStyle;rounded=0;orthogonalLoop=1;jettySize=auto;html=1;" edge="1" parent="1" source="ZNKDLAeUSxo-m8NFxRNW-1" target="ZNKDLAeUSxo-m8NFxRNW-2">
          <mxGeometry relative="1" as="geometry" />
        </mxCell>
        <mxCell id="ZNKDLAeUSxo-m8NFxRNW-1" value="" style="rounded=0;whiteSpace=wrap;html=1;" vertex="1" parent="1">
          <mxGeometry x="120" y="220" width="120" height="60" as="geometry" />
        </mxCell>
        <mxCell id="ZNKDLAeUSxo-m8NFxRNW-5" value="" style="edgeStyle=orthogonalEdgeStyle;rounded=0;orthogonalLoop=1;jettySize=auto;html=1;" edge="1" parent="1" source="ZNKDLAeUSxo-m8NFxRNW-2" target="ZNKDLAeUSxo-m8NFxRNW-4">
          <mxGeometry relative="1" as="geometry" />
        </mxCell>
        <mxCell id="ZNKDLAeUSxo-m8NFxRNW-2" value="" style="whiteSpace=wrap;html=1;rounded=0;" vertex="1" parent="1">
          <mxGeometry x="320" y="220" width="120" height="60" as="geometry" />
        </mxCell>
        <mxCell id="ZNKDLAeUSxo-m8NFxRNW-4" value="" style="whiteSpace=wrap;html=1;rounded=0;" vertex="1" parent="1">
          <mxGeometry x="520" y="220" width="120" height="60" as="geometry" />
        </mxCell>
      </root>
    </mxGraphModel>
  </diagram>
</mxfile>
